<?xml version="1.0" encoding="utf-8"?>
<!-- Generator: Adobe Illustrator 13.0.2, SVG Export Plug-In . SVG Version: 6.00 Build 14948)  -->
<!DOCTYPE svg PUBLIC "-//W3C//DTD SVG 1.1//EN" "http://www.w3.org/Graphics/SVG/1.1/DTD/svg11.dtd">
<svg version="1.1" xmlns="http://www.w3.org/2000/svg" xmlns:xlink="http://www.w3.org/1999/xlink" x="0px" y="0px" width="1024px"
	 height="614.293px" viewBox="0 0 1024 614.293" enable-background="new 0 0 1024 614.293" xml:space="preserve">
<g id="Layer_3">
</g>
<g id="Flag">
	<rect fill-rule="evenodd" clip-rule="evenodd" fill="none" width="1024" height="614.293"/>
	<g>
		<rect x="767.425" y="1.208" fill="#E31937" stroke="#E31937" stroke-width="0.9862" width="255.426" height="611.878"/>
		<rect x="1.15" y="1.208" fill="#E31937" stroke="#E31937" stroke-width="0.9862" width="255.425" height="611.878"/>
	</g>
	<rect x="256.576" y="1.208" fill="#FFFFFF" width="510.85" height="611.878"/>
	<g>
		<path fill="#E31937" stroke="#E31937" stroke-width="0.4505" d="M521.668,520.627c-2.506-41.532-3.581-68.387-4.654-94.346
			c-0.459-11.093,9.256-10.072,16.474-8.945c59.805,9.306,88.101,13.602,88.101,13.602c-21.49-40.456-6.397-42.807,5.372-52.634
			c67.326-56.208,81.65-68.382,81.65-68.382c-31.154-10.563-26.86-6.624-6.804-81.275c-65.001,20.585-59.629,14.5-73.419-17.544
			c0,0-5.011,5.729-45.661,51.56c-5.729,6.461-15.45,2.133-13.427-7.876c21.128-104.549,22.204-108.846,22.204-108.846
			c-41.186,24.886-39.616,26.272-46.2,13.426C522.744,115.329,512,93.667,512,93.667s-10.745,21.662-33.307,65.7
			c-6.582,12.846-5.014,11.459-46.198-13.426c0,0,1.073,4.297,22.203,108.846c2.024,10.009-7.694,14.338-13.429,7.876
			c-40.648-45.831-45.661-51.56-45.661-51.56c-13.788,32.044-8.417,38.13-73.417,17.544c20.055,74.651,24.353,70.712-6.804,81.275
			c0,0,14.325,12.173,81.652,68.382c11.766,9.827,26.858,12.178,5.372,52.634c0,0,28.292-4.296,88.1-13.602
			c7.217-1.127,16.935-2.147,16.474,8.945c-1.074,25.959-2.147,52.813-4.655,94.346H521.668z"/>
	</g>
</g>
<g id="Sidebar">
</g>
</svg>
